<svg width="1054" height="43" viewBox="0 0 1054 43" fill="none" xmlns="http://www.w3.org/2000/svg">
<line x1="0.995239" y1="21.9294" x2="1053" y2="21.9294" stroke="#48017D"/>
<circle cx="67" cy="21" r="21" fill="#FED636"/>
<circle cx="318" cy="22" r="21" fill="#FED636"/>
<circle cx="661" cy="21" r="21" fill="#FED636"/>
<circle cx="1005" cy="21" r="21" fill="#FED636"/>
<path d="M63.9 16.5V14.42H68.06V29H65.76V16.5H63.9Z" fill="#48017D"/>
<path d="M314.46 24.9C315.74 23.7933 316.747 22.8867 317.48 22.18C318.227 21.46 318.847 20.7133 319.34 19.94C319.833 19.1667 320.08 18.3933 320.08 17.62C320.08 16.82 319.887 16.1933 319.5 15.74C319.127 15.2867 318.533 15.06 317.72 15.06C316.933 15.06 316.32 15.3133 315.88 15.82C315.453 16.3133 315.227 16.98 315.2 17.82H313C313.04 16.3 313.493 15.14 314.36 14.34C315.24 13.5267 316.353 13.12 317.7 13.12C319.153 13.12 320.287 13.52 321.1 14.32C321.927 15.12 322.34 16.1867 322.34 17.52C322.34 18.48 322.093 19.4067 321.6 20.3C321.12 21.18 320.54 21.9733 319.86 22.68C319.193 23.3733 318.34 24.18 317.3 25.1L316.4 25.9H322.74V27.8H313.02V26.14L314.46 24.9Z" fill="#48017D"/>
<path d="M656.16 18.02C656.24 16.78 656.713 15.8133 657.58 15.12C658.46 14.4267 659.58 14.08 660.94 14.08C661.873 14.08 662.68 14.2467 663.36 14.58C664.04 14.9133 664.553 15.3667 664.9 15.94C665.247 16.5133 665.42 17.16 665.42 17.88C665.42 18.7067 665.2 19.4133 664.76 20C664.32 20.5867 663.793 20.98 663.18 21.18V21.26C663.967 21.5 664.58 21.94 665.02 22.58C665.46 23.2067 665.68 24.0133 665.68 25C665.68 25.7867 665.5 26.4867 665.14 27.1C664.78 27.7133 664.247 28.2 663.54 28.56C662.833 28.9067 661.987 29.08 661 29.08C659.56 29.08 658.373 28.7133 657.44 27.98C656.52 27.2333 656.027 26.1667 655.96 24.78H658.16C658.213 25.4867 658.487 26.0667 658.98 26.52C659.473 26.96 660.14 27.18 660.98 27.18C661.793 27.18 662.42 26.96 662.86 26.52C663.3 26.0667 663.52 25.4867 663.52 24.78C663.52 23.8467 663.22 23.1867 662.62 22.8C662.033 22.4 661.127 22.2 659.9 22.2H659.38V20.32H659.92C661 20.3067 661.82 20.1267 662.38 19.78C662.953 19.4333 663.24 18.8867 663.24 18.14C663.24 17.5 663.033 16.9933 662.62 16.62C662.207 16.2333 661.62 16.04 660.86 16.04C660.113 16.04 659.533 16.2333 659.12 16.62C658.707 16.9933 658.46 17.46 658.38 18.02H656.16Z" fill="#48017D"/>
<path d="M999.92 24.96V23.24L1006.64 13.6H1009.4V22.98H1011.26V24.96H1009.4V28H1007.16V24.96H999.92ZM1007.26 15.92L1002.54 22.98H1007.26V15.92Z" fill="#48017D"/>
</svg>
