<svg width="18" height="18" viewBox="0 0 18 18" fill="none" xmlns="http://www.w3.org/2000/svg">
<path d="M12.7275 10.83C13.755 11.0025 14.8875 10.8225 15.6825 10.29C16.74 9.585 16.74 8.43 15.6825 7.725C14.88 7.1925 13.7325 7.0125 12.705 7.1925M5.24999 10.83C4.22249 11.0025 3.08999 10.8225 2.29499 10.29C1.23749 9.585 1.23749 8.43 2.29499 7.725C3.09749 7.1925 4.24499 7.0125 5.27249 7.1925M13.5 5.37C13.4528 5.36249 13.4047 5.36249 13.3575 5.37C12.857 5.3519 12.3831 5.13991 12.036 4.77882C11.6889 4.41774 11.4958 3.93585 11.4975 3.435C11.4975 2.3625 12.36 1.5 13.4325 1.5C13.9457 1.5 14.4379 1.70387 14.8007 2.06675C15.1636 2.42963 15.3675 2.92181 15.3675 3.435C15.3661 3.93621 15.171 4.41747 14.8229 4.77811C14.4749 5.13875 14.0008 5.35084 13.5 5.37ZM4.47749 5.37C4.52249 5.3625 4.57499 5.3625 4.61999 5.37C5.12051 5.3519 5.59439 5.13991 5.94148 4.77882C6.28857 4.41774 6.48168 3.93585 6.47999 3.435C6.47999 2.3625 5.61749 1.5 4.54499 1.5C4.03179 1.5 3.53962 1.70387 3.17673 2.06675C2.81385 2.42963 2.60999 2.92181 2.60999 3.435C2.61749 4.485 3.44249 5.3325 4.47749 5.37ZM8.99999 10.9725C8.95278 10.965 8.90469 10.965 8.85749 10.9725C8.35696 10.9544 7.88308 10.7424 7.53599 10.3813C7.1889 10.0202 6.9958 9.53835 6.99749 9.0375C6.99749 7.965 7.85999 7.1025 8.93249 7.1025C9.44568 7.1025 9.93786 7.30637 10.3007 7.66925C10.6636 8.03213 10.8675 8.52431 10.8675 9.0375C10.86 10.0875 10.035 10.9425 8.99999 10.9725ZM6.81749 13.335C5.75999 14.04 5.75999 15.195 6.81749 15.9C8.01749 16.7025 9.98249 16.7025 11.1825 15.9C12.24 15.195 12.24 14.04 11.1825 13.335C9.98999 12.54 8.01749 12.54 6.81749 13.335Z" stroke="#FED636" stroke-width="1.5" stroke-linecap="round" stroke-linejoin="round"/>
</svg>
