<svg width="18" height="18" viewBox="0 0 18 18" fill="none" xmlns="http://www.w3.org/2000/svg">
<g clip-path="url(#clip0_27_6)">
<path d="M9 14.625C10.4918 14.625 11.9226 14.0324 12.9775 12.9775C14.0324 11.9226 14.625 10.4918 14.625 9C14.625 7.50816 14.0324 6.07742 12.9775 5.02252C11.9226 3.96763 10.4918 3.375 9 3.375C7.50816 3.375 6.07742 3.96763 5.02252 5.02252C3.96763 6.07742 3.375 7.50816 3.375 9C3.375 10.4918 3.96763 11.9226 5.02252 12.9775C6.07742 14.0324 7.50816 14.625 9 14.625Z" stroke="#FED636" stroke-width="1.5" stroke-linecap="round" stroke-linejoin="round"/>
<path d="M9 3V1.5M3 9H1.5M9 15V16.5M15 9H16.5M9 11.25C9.59674 11.25 10.169 11.0129 10.591 10.591C11.0129 10.169 11.25 9.59674 11.25 9C11.25 8.40326 11.0129 7.83097 10.591 7.40901C10.169 6.98705 9.59674 6.75 9 6.75C8.40326 6.75 7.83097 6.98705 7.40901 7.40901C6.98705 7.83097 6.75 8.40326 6.75 9C6.75 9.59674 6.98705 10.169 7.40901 10.591C7.83097 11.0129 8.40326 11.25 9 11.25Z" stroke="#FED636" stroke-width="1.5" stroke-linecap="round" stroke-linejoin="round"/>
</g>
<defs>
<clipPath id="clip0_27_6">
<rect width="18" height="18" fill="white"/>
</clipPath>
</defs>
</svg>
